# xmcd
#
# Track frame offsets:
#	150
#	15750
#	31212
#	49662
#	66575
#	81915
#	98304
#	117247
#	137312
#	154159
#	172515
#	190917
#
# Disc length: 2798 seconds
#
# Revision: 1
# Processed by: cddbd v1.4PL0 Copyright (c) Steve Scherf et al.
# Submitted via: audiograbber 1.81.03
#
DISCID=820aec0c
DTITLE=Raça Fandangueira - Vanerão Do Tipo Bicho
DYEAR=2002
DGENRE=Country
TTITLE0=A Minha Sina
TTITLE1=Façam Fila Mulherada
TTITLE2=Sem Vergonha
TTITLE3=Olhar Tristonho
TTITLE4=Baile Campeiro
TTITLE5=Abram Cancha
TTITLE6=Distância
TTITLE7=Mané Da Ilha
TTITLE8=Não Consigo Esquecer
TTITLE9=As Coisas Do Meu Irmão
TTITLE10=Essa Mulher É Uma Fera
TTITLE11=Vanerão Do Tipo Bicho
EXTD=
EXTT0=
EXTT1=
EXTT2=
EXTT3=
EXTT4=
EXTT5=
EXTT6=
EXTT7=
EXTT8=
EXTT9=
EXTT10=
EXTT11=
PLAYORDER=
